<svg width="197" height="74" viewBox="0 0 197 74" fill="none" xmlns="http://www.w3.org/2000/svg">
<path d="M0.684082 44.4896C31.5701 58.2444 64.6608 67.0226 98.3053 70.3809C109.107 71.4561 120.229 71.9548 130.632 68.8625C141.045 65.7702 150.738 58.4771 154.162 48.1694C158.803 34.204 150.495 18.421 138.154 10.4075C125.812 2.39407 110.48 0.64286 95.7684 0.554192C87.9804 0.509857 79.8711 0.953201 73.0359 4.69946C66.2117 8.44572 61.0936 16.3816 62.9658 23.9517C65.2922 33.3506 76.4701 37.4404 86.1303 37.906C93.165 38.2496 100.931 37.1523 105.683 31.9541C110.436 26.7558 109.516 16.5368 102.781 14.4641C95.9678 12.3693 89.4538 20.5269 90.5949 27.565C91.7359 34.603 97.696 39.8345 103.778 43.5475C130.432 59.8515 167.167 57.6015 191.639 38.1609" stroke="#8454F4" stroke-miterlimit="10" stroke-linecap="round"/>
<path d="M186.355 32.2311C188.227 32.4861 190.122 32.741 191.839 33.5168C193.556 34.2927 195.107 35.656 195.65 37.4626C196.425 40.0451 195.018 42.7273 193.667 45.0549" stroke="#8454F4" stroke-miterlimit="10" stroke-linecap="round"/>
<path d="M0.684082 46.7064C31.5701 60.4611 64.6608 69.2393 98.3053 72.5977C109.107 73.6728 120.229 74.1715 130.632 71.0792C141.045 67.9869 150.738 60.6939 154.162 50.3861C158.803 36.4208 150.495 20.6377 138.154 12.6243C125.812 4.61081 110.48 2.8596 95.7684 2.77093C87.9804 2.72659 79.8711 3.16994 73.0359 6.9162C66.2117 10.6625 61.0936 18.5983 62.9658 26.1684C65.2922 35.5673 76.4701 39.6572 86.1303 40.1227C93.165 40.4663 100.931 39.369 105.683 34.1708C110.436 28.9726 109.516 18.7535 102.781 16.6809C95.9678 14.5861 89.4538 22.7436 90.5949 29.7817C91.7359 36.8198 97.696 42.0512 103.778 45.7643C130.432 62.0682 167.167 59.8183 191.639 40.3776" stroke="white" stroke-miterlimit="10" stroke-linecap="round"/>
<path d="M186.355 34.4479C188.227 34.7028 190.122 34.9577 191.839 35.7336C193.556 36.5094 195.107 37.8727 195.65 39.6793C196.425 42.2618 195.018 44.9441 193.667 47.2716" stroke="white" stroke-miterlimit="10" stroke-linecap="round"/>
</svg>
