<svg width="185" height="74" viewBox="0 0 185 74" fill="none" xmlns="http://www.w3.org/2000/svg">
<path d="M1.02612 8.51801C31.458 -5.27 70.0434 1.61292 93.8505 25.0658C100.099 31.2172 105.527 38.743 106.878 47.4104C108.23 56.0778 104.552 65.9422 96.6422 69.7106C88.8764 73.4015 78.8506 70.0542 73.7989 63.0937C68.7472 56.1332 68.3595 46.435 71.6054 38.4659C76.6349 26.0855 88.9871 18.2605 101.428 13.3726C125.867 3.77422 153.518 2.56611 178.699 10.0032" stroke="#8454F4" stroke-miterlimit="10" stroke-linecap="round"/>
<path d="M179.74 3.15356C181.069 4.4836 182.432 5.84688 183.329 7.49834C184.227 9.1498 184.648 11.1781 183.983 12.9515C183.041 15.4785 180.294 16.7642 177.812 17.795" stroke="#8454F4" stroke-miterlimit="10" stroke-linecap="round"/>
<path d="M1.02612 10.7347C31.458 -3.05327 70.0434 3.82965 93.8505 27.2826C100.099 33.434 105.527 40.9598 106.878 49.6271C108.23 58.2945 104.552 68.1589 96.6422 71.9274C88.8764 75.6182 78.8506 72.271 73.7989 65.3104C68.7472 58.3499 68.3595 48.6518 71.6054 40.6827C76.6349 28.3023 88.9871 20.4772 101.428 15.5894C125.867 5.99096 153.518 4.78284 178.699 12.2199" stroke="white" stroke-miterlimit="10" stroke-linecap="round"/>
<path d="M179.74 5.37024C181.069 6.70027 182.432 8.06356 183.329 9.71501C184.227 11.3665 184.648 13.3948 183.983 15.1681C183.041 17.6952 180.294 18.9809 177.812 20.0117" stroke="white" stroke-miterlimit="10" stroke-linecap="round"/>
</svg>
