<svg width="46" height="67" viewBox="0 0 46 67" fill="none" xmlns="http://www.w3.org/2000/svg">
<path d="M16.5817 53.1803H43.7565V62.8342H1.39343V54.6988L22.298 32.4429C24.5137 30.0156 26.1976 28.0981 27.3165 26.6794C28.4464 25.2607 29.3216 23.8642 29.953 22.4566C30.5845 21.06 30.9058 19.597 30.9058 18.0675C30.9058 15.9837 30.1746 14.3212 28.7234 13.0466C27.2611 11.772 25.2448 11.1402 22.6414 11.1402C20.1599 11.1402 17.9221 11.783 15.917 13.0687C13.9118 14.3544 11.7516 16.3938 9.4473 19.198L1.74793 11.9271C7.2538 4.60087 14.3217 0.93219 22.9516 0.93219C27.1613 0.93219 30.7507 1.60829 33.7086 2.97157C36.6665 4.32378 38.9042 6.28557 40.4109 8.8348C41.9175 11.384 42.6819 14.4431 42.6819 17.9899C42.6819 20.4726 42.1945 22.7891 41.2307 24.9393C40.2669 27.0895 39.0372 29.0624 37.5527 30.869C36.0682 32.6757 33.9634 34.9921 31.2603 37.8184L29.7426 39.4256L16.5817 53.1803Z" stroke="#45D3A1" stroke-miterlimit="10"/>
<path d="M17.6894 56.5054H44.8643V66.1592H2.50122V58.0239L23.4058 35.768C25.6214 33.3407 27.3054 31.4232 28.4243 30.0045C29.5542 28.5858 30.4294 27.1893 31.0608 25.7816C31.6923 24.3851 32.0136 22.9221 32.0136 21.3925C32.0136 19.3088 31.2824 17.6463 29.8312 16.3716C28.3688 15.097 26.3526 14.4653 23.7492 14.4653C21.2677 14.4653 19.0299 15.1081 17.0248 16.3938C15.0196 17.6795 12.8594 19.7189 10.5551 22.5231L2.85571 15.2522C8.36159 7.92594 15.4295 4.25726 24.0594 4.25726C28.2691 4.25726 31.8585 4.93336 34.8164 6.29665C37.7743 7.64885 40.012 9.61065 41.5187 12.1599C43.0253 14.7091 43.7897 17.7682 43.7897 21.3149C43.7897 23.7977 43.3023 26.1141 42.3385 28.2644C41.3747 30.4146 40.145 32.3875 38.6605 34.1941C37.176 36.0007 35.0712 38.3172 32.3681 41.1435L30.8504 42.7506L17.6894 56.5054Z" stroke="#FB81BE" stroke-miterlimit="10"/>
</svg>
