<svg width="46" height="68" viewBox="0 0 46 68" fill="none" xmlns="http://www.w3.org/2000/svg">
<path d="M8.56674 60.1963C5.14358 57.7689 2.60665 54.5658 0.933838 50.5868L10.4943 45.6546C12.0231 48.37 13.707 50.4205 15.5349 51.806C17.3629 53.1914 19.7225 53.8897 22.6139 53.8897C25.7269 53.8897 28.142 53.1692 29.8369 51.7284C31.543 50.2875 32.3849 48.1373 32.3849 45.2777C32.3849 42.1078 31.1995 39.8911 28.8177 38.6497C26.4359 37.4084 23.6553 36.7877 20.4869 36.7877H16.0778V26.9565H20.2321C23.2343 26.9565 25.7712 26.3137 27.8539 25.028C29.9366 23.7423 30.9669 21.5699 30.9669 18.5108C30.9669 16.0835 30.2246 14.1771 28.7402 12.7917C27.2557 11.4062 25.1508 10.7079 22.4477 10.7079C19.9662 10.7079 17.8392 11.3397 16.0667 12.5921C14.2942 13.8446 12.7543 15.7066 11.4581 18.1561L2.15245 13.1796C3.71448 9.16731 6.30678 6.11932 9.94043 4.04669C13.5741 1.97405 17.806 0.93219 22.625 0.93219C27.156 0.93219 30.9226 1.64154 33.9248 3.07133C36.927 4.50111 39.1426 6.42966 40.5939 8.84589C42.034 11.2732 42.7541 14.0109 42.7541 17.0699C42.7541 20.6832 41.7681 23.7312 39.7851 26.225C37.8132 28.7188 34.811 30.4589 30.8007 31.4454V31.6227C35.2763 32.3099 38.6441 33.9614 40.9262 36.5549C43.2083 39.1485 44.3494 42.2962 44.3494 45.9982C44.3494 49.689 43.5296 52.8811 41.9011 55.5411C40.2726 58.2123 37.8354 60.2628 34.6116 61.6925C31.3768 63.1223 27.4108 63.8317 22.7136 63.8317C16.6981 63.8317 11.9899 62.6236 8.56674 60.1963Z" stroke="#45D3A1" stroke-miterlimit="10"/>
<path d="M9.67453 63.5213C6.25136 61.094 3.71444 57.8909 2.04163 53.9118L11.6021 48.9796C13.1309 51.6951 14.8148 53.7456 16.6427 55.131C18.4706 56.5165 20.8303 57.2148 23.7217 57.2148C26.8347 57.2148 29.2497 56.4943 30.9447 55.0535C32.6508 53.6126 33.4927 51.4624 33.4927 48.6028C33.4927 45.4329 32.3073 43.2162 29.9255 41.9748C27.5437 40.7334 24.7631 40.1127 21.5947 40.1127H17.1856V30.2816H21.3399C24.3421 30.2816 26.879 29.6387 28.9617 28.353C31.0444 27.0673 32.0747 24.8949 32.0747 21.8359C32.0747 19.4086 31.3324 17.5022 29.8479 16.1167C28.3635 14.7313 26.2586 14.033 23.5555 14.033C21.074 14.033 18.947 14.6648 17.1745 15.9172C15.402 17.1697 13.8621 19.0317 12.5659 21.4812L3.26024 16.5047C4.82226 12.4924 7.41456 9.44439 11.0482 7.37176C14.6819 5.29912 18.9138 4.25726 23.7328 4.25726C28.2638 4.25726 32.0303 4.96661 35.0325 6.3964C38.0347 7.82619 40.2504 9.75473 41.7017 12.171C43.1418 14.5983 43.8619 17.3359 43.8619 20.395C43.8619 24.0083 42.8759 27.0563 40.8929 29.5501C38.921 32.0439 35.9188 33.784 31.9085 34.7704V34.9478C36.3841 35.635 39.7519 37.2864 42.034 39.88C44.3161 42.4736 45.4571 45.6213 45.4571 49.3232C45.4571 53.0141 44.6374 56.2061 43.0089 58.8662C41.3804 61.5374 38.9432 63.5878 35.7194 65.0176C32.4846 66.4474 28.5186 67.1568 23.8214 67.1568C17.8059 67.1568 13.0977 65.9486 9.67453 63.5213Z" stroke="#FB81BE" stroke-miterlimit="10"/>
</svg>
