<svg width="104" height="105" viewBox="0 0 104 105" fill="none" xmlns="http://www.w3.org/2000/svg">
<path d="M51.1547 101.179C78.8544 101.179 101.309 78.7532 101.309 51.0895C101.309 23.4258 78.8544 1 51.1547 1C23.455 1 1 23.4258 1 51.0895C1 78.7532 23.455 101.179 51.1547 101.179Z" stroke="#FB81BE" stroke-miterlimit="10"/>
<path d="M52.8452 103.993C80.5449 103.993 103 81.5672 103 53.9035C103 26.2399 80.5449 3.81403 52.8452 3.81403C25.1456 3.81403 2.69055 26.2399 2.69055 53.9035C2.69055 81.5672 25.1456 103.993 52.8452 103.993Z" stroke="#45D3A1" stroke-miterlimit="10"/>
<path fill-rule="evenodd" clip-rule="evenodd" d="M74.2933 29.6017C73.7636 29.6017 73.3353 29.1739 73.9327 28.6449V27.4292C73.3353 26.9002 73.7636 26.4725 74.2933 26.4725C74.8231 26.4725 75.2513 26.9002 75.2513 27.4292V28.6449C75.2401 29.1739 74.8231 29.6017 74.2933 29.6017Z" fill="#45D3A1"/>
<path fill-rule="evenodd" clip-rule="evenodd" d="M74.2933 34.2617C73.7636 34.2617 73.3353 33.834 73.9327 33.3049V32.0893C73.3353 31.5602 73.7636 31.1325 74.2933 31.1325C74.8231 31.1325 75.2513 31.5602 75.2513 32.0893V33.3049C75.2401 33.834 74.8231 34.2617 74.2933 34.2617Z" fill="#45D3A1"/>
<path fill-rule="evenodd" clip-rule="evenodd" d="M77.2575 30.5809H76.0403C75.5106 31.3238 75.0823 30.8961 75.0823 30.3671C75.0823 29.838 75.5106 29.4103 76.0403 29.264H77.2575C77.7872 29.4103 78.2155 29.838 78.2155 30.3671C78.2155 30.8961 77.7647 31.3126 77.2575 30.5809Z" fill="#45D3A1"/>
<path fill-rule="evenodd" clip-rule="evenodd" d="M72.5803 30.5809H71.363C70.8333 31.3238 70.405 30.8961 70.405 30.3671C70.405 29.838 70.8333 29.4103 71.363 29.264H72.5803C73.11 29.4103 73.5383 29.838 73.5383 30.3671C73.5383 30.8961 73.0875 31.3126 72.5803 30.5809Z" fill="#45D3A1"/>
<path fill-rule="evenodd" clip-rule="evenodd" d="M62.7409 66.8256C62.4141 66.8256 62.0985 66.6567 61.9182 66.3528L58.5708 60.5447C58.3116 60.0832 58.4693 59.5091 58.9202 59.239C59.3823 58.9801 59.9571 59.1377 60.2276 59.5879L63.575 65.396C63.8342 65.8575 63.6764 66.4316 63.2256 66.7017C63.0565 66.7805 62.8875 66.8256 62.7409 66.8256Z" fill="#FB81BE"/>
<path fill-rule="evenodd" clip-rule="evenodd" d="M48.4496 51.7649C48.2468 51.7649 48.0552 51.6974 47.8861 51.5848C47.5931 51.3709 47.4353 50.9882 47.5029 50.6505L48.4158 45.8217L44.8317 42.4561C44.5725 42.2085 44.4711 41.8145 44.5838 41.4656C44.6965 41.1167 45.0008 40.869 45.3727 40.824L50.2642 40.1937L52.3606 35.7475C52.5296 35.4211 52.8565 35.2072 53.2172 35.2072C53.5778 35.2072 53.9159 35.4211 54.0737 35.7475L56.1701 40.1937L61.0616 40.824C61.4222 40.869 61.7378 41.1167 61.8505 41.4656C61.9632 41.8145 61.8618 42.186 61.6026 42.4561L58.0185 45.8217L58.9314 50.6505C58.999 51.0107 58.8525 51.3709 58.5482 51.5848C58.2552 51.7987 57.8494 51.8324 57.5451 51.6523L53.2172 49.2773L48.8892 51.6523C48.7652 51.7311 48.6074 51.7649 48.4496 51.7649ZM47.6156 42.4224L50.1064 44.7749C50.3431 44.9887 50.4558 45.3152 50.3882 45.6528L49.7458 49.0184L52.7551 47.375C53.0368 47.2287 53.3862 47.2287 53.668 47.375L56.6773 49.0184L56.0348 45.6528C55.9672 45.3377 56.0799 45.0113 56.3166 44.7749L58.8074 42.4224L55.4037 41.9946C55.0881 41.9609 54.8063 41.747 54.6598 41.4543L53.1946 38.3589L51.7294 41.4543C51.5942 41.747 51.3124 41.9496 50.9856 41.9946L47.6156 42.4224Z" fill="#FB81BE"/>
<path fill-rule="evenodd" clip-rule="evenodd" d="M53.2284 56.7851C51.4251 56.7851 49.6781 56.4362 48.0439 55.7271C46.4547 55.0517 45.0233 54.0949 43.8061 52.8793C42.5888 51.6636 41.6308 50.2228 40.9546 48.647C40.2558 47.0036 39.8951 45.2702 39.8951 43.4692C39.8951 41.6682 40.2445 39.9235 40.9546 38.2914C41.6308 36.7043 42.5888 35.2748 43.8061 34.0591C45.0233 32.8435 46.466 31.8867 48.0439 31.2113C49.6894 30.5135 51.4251 30.1533 53.2284 30.1533C55.0317 30.1533 56.7787 30.5022 58.4129 31.2113C60.0021 31.8867 61.4335 32.8435 62.6507 34.0591C63.868 35.2748 64.826 36.7156 65.5022 38.2914C66.201 39.9348 66.5617 41.6682 66.5617 43.4692C66.5617 45.2702 66.2123 47.0149 65.5022 48.647C64.826 50.2341 63.868 51.6636 62.6507 52.8793C61.4335 54.0949 59.9908 55.0517 58.4129 55.7271C56.7674 56.4362 55.0317 56.7851 53.2284 56.7851ZM53.2284 32.0555C46.9168 32.0555 41.7999 37.1883 41.7999 43.4692C41.7999 49.7501 46.9393 54.8829 53.2284 54.8829C59.54 54.8829 64.6682 49.7726 64.6682 43.4692C64.6682 37.1658 59.5287 32.0555 53.2284 32.0555Z" fill="white"/>
<path fill-rule="evenodd" clip-rule="evenodd" d="M61.6702 83.4282C61.3434 83.4282 61.0278 83.2481 60.8475 82.9555L52.2141 68.0187C51.9549 67.5572 52.1127 66.9831 52.5635 66.713C53.0256 66.4541 53.6004 66.6117 53.8709 67.0619L61.287 79.8713L63.2481 71.0128C63.2932 70.7539 63.4623 70.54 63.699 70.405C63.9356 70.2699 64.1949 70.2361 64.4541 70.3262L73.234 73.0164L63.9582 56.9877C63.699 56.5262 63.8567 55.9522 64.3076 55.682C64.7697 55.4231 65.3445 55.5807 65.615 56.0309L76.0967 74.1532C76.2996 74.4797 76.2658 74.9074 76.0179 75.2226C75.7699 75.5152 75.3754 75.6503 74.9922 75.5377L64.8937 72.4423L62.6282 82.6853C62.5493 83.068 62.2338 83.3607 61.8393 83.4057C61.7491 83.4282 61.704 83.4282 61.6702 83.4282Z" fill="#FB81BE"/>
<path fill-rule="evenodd" clip-rule="evenodd" d="M32.2875 56.2448C31.7578 56.2448 31.3295 55.8171 31.6 55.288V54.0724C31.3295 53.5433 31.7578 53.1156 32.2875 53.1156C32.8172 53.1156 33.2455 53.5433 32.9187 54.0724V55.288C33.2455 55.8171 32.8172 56.2448 32.2875 56.2448Z" fill="#FB81BE"/>
<path fill-rule="evenodd" clip-rule="evenodd" d="M32.2875 60.8936C31.7578 60.8936 31.3295 60.4659 31.6 59.9368V58.7212C31.3295 58.1921 31.7578 57.7644 32.2875 57.7644C32.8172 57.7644 33.2455 58.1921 32.9187 58.7212V59.9368C33.2455 60.4771 32.8172 60.8936 32.2875 60.8936Z" fill="#FB81BE"/>
<path fill-rule="evenodd" clip-rule="evenodd" d="M35.2404 56.999H34.0232C33.4935 57.9557 33.0652 57.528 33.0652 56.999C33.0652 56.4699 33.4935 56.0422 34.0232 55.682H35.2404C35.7702 56.0422 36.1984 56.4699 36.1984 56.999C36.1759 57.528 35.7702 57.9557 35.2404 56.999Z" fill="#FB81BE"/>
<path fill-rule="evenodd" clip-rule="evenodd" d="M30.5631 56.999H29.3458C28.8161 57.9557 28.3878 57.528 28.3878 56.999C28.3878 56.4699 28.8161 56.0422 29.3458 55.682H30.5631C31.0928 56.0422 31.5211 56.4699 31.5211 56.999C31.5211 57.528 31.0928 57.9557 30.5631 56.999Z" fill="#FB81BE"/>
<path fill-rule="evenodd" clip-rule="evenodd" d="M45.0571 66.7468C44.8881 66.7468 44.7303 66.713 44.5838 66.6117C44.1217 66.3528 43.9752 65.7675 44.2344 65.306L47.6719 59.374C47.9312 58.9125 48.5172 58.7662 48.9793 59.0251C49.4414 59.284 49.588 59.8693 49.3287 60.3308L45.8912 66.2628C45.7108 66.5667 45.3953 66.7468 45.0571 66.7468Z" fill="#45D3A1"/>
<path fill-rule="evenodd" clip-rule="evenodd" d="M44.798 82.7529C44.7529 82.7529 44.6966 82.7529 44.6515 82.7416C44.257 82.6741 43.9527 82.3927 43.8625 82.0212L41.5858 71.7782L31.4873 74.8736C31.1041 74.9862 30.7096 74.8624 30.4616 74.5584C30.2137 74.2658 30.1799 73.8381 30.3827 73.4891L40.718 55.637C40.9772 55.1755 41.5633 55.0292 42.0254 55.288C42.4875 55.5469 42.634 56.1322 42.3748 56.5937L33.2568 72.3523L42.0367 69.6621C42.2846 69.5833 42.5664 69.617 42.7918 69.7408C43.0285 69.8759 43.1863 70.101 43.2426 70.3487L45.2037 79.2072L56.6322 59.4528C56.8915 58.9913 57.4775 58.845 57.9396 59.1039C58.4017 59.3627 58.5483 59.9481 58.289 60.4096L45.6207 82.2801C45.463 82.5728 45.1248 82.7529 44.798 82.7529Z" fill="#45D3A1"/>
<path fill-rule="evenodd" clip-rule="evenodd" d="M53.2285 64.2704C53.0143 64.2704 52.8002 64.2029 52.6311 64.0565L48.5737 60.7923L43.4229 61.6027C42.9721 61.6702 42.5438 61.4226 42.386 61.0061L40.5038 56.1548L35.6461 54.275C35.2291 54.1062 34.9812 53.6784 35.0488 53.2394L35.8603 48.0954L32.603 44.0545C32.3213 43.7056 32.3213 43.2103 32.603 42.8726L35.8716 38.8204L35.0601 33.6764C34.9924 33.2262 35.2404 32.7984 35.6574 32.6408L40.5151 30.7611L42.3973 25.9097C42.5664 25.4932 42.9947 25.2456 43.4342 25.3131L48.5849 26.1236L52.6424 22.8593C52.9918 22.5779 53.4877 22.5779 53.8258 22.8593L57.8495 26.1348L63.0002 25.3244C63.451 25.2569 63.8793 25.5045 64.0371 25.921L65.9193 30.7723L70.777 32.6521C71.194 32.8209 71.4419 33.2487 71.3743 33.6876L70.5628 38.8317L73.8313 42.8839C74.1131 43.2328 74.1131 43.7281 73.8313 44.0657L70.5628 48.1067L71.3743 53.2507C71.4419 53.7009 71.194 54.1287 70.777 54.2863L65.9193 56.1548L64.0371 61.0061C63.868 61.4226 63.4397 61.6702 63.0002 61.6027L57.8495 60.7923L53.792 64.0565C53.6455 64.2029 53.4426 64.2704 53.2285 64.2704ZM48.8442 58.845C49.0583 58.845 49.2724 58.9238 49.4415 59.0588L53.2172 62.1092L56.9929 59.0588C57.207 58.89 57.4663 58.8112 57.7367 58.8562L62.5381 59.6104L64.3076 55.0629C64.409 54.8153 64.6006 54.6127 64.8486 54.5226L69.3907 52.778L68.6355 47.9829C68.6017 47.724 68.6693 47.4538 68.8384 47.24L71.8928 43.4692L68.8384 39.6984C68.6693 39.4845 68.5904 39.2256 68.6355 38.9555L69.3907 34.1604L64.8486 32.4157C64.6006 32.3144 64.3977 32.1231 64.3076 31.8754L62.5606 27.3392L57.7593 28.0934C57.5001 28.1271 57.2296 28.0596 57.0154 27.8908L53.2397 24.8404L49.464 27.8908C49.2499 28.0596 48.9907 28.1384 48.7202 28.0934L43.9189 27.3392L42.1719 31.8754C42.0704 32.1231 41.8788 32.3257 41.6309 32.4157L37.0888 34.1604L37.8439 38.9555C37.8777 39.2144 37.8101 39.4845 37.6411 39.6984L34.5867 43.4692L37.6298 47.24C37.7988 47.4538 37.8777 47.7127 37.8327 47.9829L37.0775 52.778L41.6196 54.5226C41.8676 54.6239 42.0705 54.8153 42.1606 55.0629L43.9076 59.5766L48.7089 58.8225C48.7427 58.845 48.8103 58.845 48.8442 58.845Z" fill="white"/>
</svg>
