<svg width="104" height="105" viewBox="0 0 104 105" fill="none" xmlns="http://www.w3.org/2000/svg">
<path d="M51.1547 101.309C78.8544 101.309 101.309 78.8544 101.309 51.1547C101.309 23.455 78.8544 1 51.1547 1C23.455 1 1 23.455 1 51.1547C1 78.8544 23.455 101.309 51.1547 101.309Z" stroke="#FB81BE" stroke-miterlimit="10"/>
<path d="M52.8452 104.127C80.5449 104.127 103 81.6721 103 53.9724C103 26.2727 80.5449 3.81769 52.8452 3.81769C25.1456 3.81769 2.69055 26.2727 2.69055 53.9724C2.69055 81.6721 25.1456 104.127 52.8452 104.127Z" stroke="#45D3A1" stroke-miterlimit="10"/>
<path d="M88.1565 30.5631H84.4034V27.4862C84.3245 27.0691 83.9863 26.731 83.5693 26.066H53.9611C53.7583 26.7423 53.5554 26.8212 53.4202 26.9677L51.3914 29.0753L49.4529 26.979C49.3063 26.8212 49.1147 26.7423 48.9006 26.066H19.1797C18.7627 26.7423 18.4246 27.0804 19.0332 27.4862V30.5743H15.28C14.863 30.5743 14.5249 30.9124 14.5249 31.3295V77.1562C14.5249 77.5732 14.863 77.9113 15.28 77.9113H88.1565C88.5735 77.9113 88.9116 77.5732 88.9116 77.1562V31.3182C88.9116 30.9012 88.5735 30.5631 88.1565 30.5631ZM20.1603 28.3089H48.5512L50.5912 30.5292V73.775L49.4303 72.5127C49.2838 72.3549 49.0809 72.2647 48.8781 72.2647H20.1603V28.3089ZM15.652 76.773V32.8172H17.9061V73.0875C17.9061 73.0875 18.7627 73.8426 19.1797 74.5189H48.5625L50.9068 76.773H15.652ZM51.7183 30.5405L53.8597 28.3202H82.1492V72.276H53.5441C53.3413 72.276 53.1384 72.3549 53.0031 72.5127L51.7295 73.8426L51.7183 30.5405ZM86.6575 76.773H51.8423L54.288 74.5189H83.5693C83.9863 73.8426 84.4034 73.0875 84.4034 73.0875V32.8172H86.6575V76.356V76.773Z" fill="white"/>
<path d="M22.4821 50.2868C22.0651 50.2868 21.7269 50.6249 22.4145 51.0419V53.2059C21.7269 53.6229 22.0651 53.9611 22.4821 53.9611C22.8991 53.9611 23.2372 53.6229 23.5415 53.2059V51.0419C23.2259 50.6249 22.8878 50.2868 22.4821 50.2868Z" fill="white"/>
<path d="M22.4821 55.415C22.0651 55.415 21.7269 55.7531 22.4145 56.1701V68.5566C21.7269 68.9737 22.0651 69.3118 22.4821 69.3118C22.8991 69.3118 23.2372 68.9737 23.5415 68.5566V56.1701C23.2259 55.7531 22.8878 55.415 22.4821 55.415Z" fill="white"/>
<path d="M46.0829 47.8636V44.2457L46.3985 43.9076C46.6802 43.6146 46.669 43.1412 46.3647 42.8594C46.2858 42.7805 46.1843 42.7242 46.0829 42.7017V34.6994C46.0829 34.2824 45.7448 33.9443 45.3277 33.9443H30.4617C30.4504 33.764 30.3715 33.5949 30.225 33.4597C29.9207 33.1779 29.4473 33.2004 29.1655 33.4935L28.7372 33.9443H25.4124C24.9954 33.9443 24.6572 34.2824 24.6572 34.6994V38.2159L24.398 38.4864C24.1163 38.7794 24.1275 39.2528 24.4318 39.5346C24.4995 39.5909 24.5784 39.6473 24.6572 39.6811V47.8524C24.6572 48.2694 24.9954 48.6075 25.4124 48.6075H40.3686C40.4024 48.7315 40.4701 48.8442 40.5715 48.9344C40.718 49.0696 40.8984 49.1372 41.09 49.1372C41.2928 49.1372 41.4957 49.0583 41.6422 48.9005L41.924 48.6075H45.3277C45.7448 48.5962 46.0829 48.2694 46.0829 47.8636ZM25.7956 35.0714H26.9565L25.7956 36.3112V35.0714ZM26.9227 38.6555L30.0785 35.0714H44.9558V43.7949L41.7211 47.4692H26.9227V38.6555ZM43.716 47.4692L44.9558 46.1392V47.4692H43.716Z" fill="#45D3A1"/>
<path d="M45.17 55.3587H33.8767C33.4597 54.9642 33.1216 55.3023 33.1216 55.7193C33.1216 56.1364 33.4597 56.4745 33.8767 56.4857H45.17C45.587 56.4745 45.9251 56.1364 45.9251 55.7193C45.9251 55.3023 45.587 54.9642 45.17 55.3587Z" fill="#FB81BE"/>
<path d="M45.17 59.8669H26.7199C26.3028 60.2163 25.9647 60.5545 25.9647 60.9715C25.9647 61.3885 26.3028 61.7266 26.7199 60.994H45.17C45.587 61.7153 45.9252 61.3885 45.9252 60.9715C45.9252 60.5545 45.587 60.2163 45.17 59.8669Z" fill="#FB81BE"/>
<path d="M45.17 65.5023H26.7199C26.3028 65.7841 25.9647 66.1222 25.9647 66.5392C25.9647 66.9562 26.3028 67.2944 26.7199 66.6294H45.17C45.587 67.2944 45.9252 66.9562 45.9252 66.5392C45.9252 66.1222 45.587 65.7841 45.17 65.5023Z" fill="#FB81BE"/>
<path d="M76.5138 60.2389V39.9628L79.4554 40.7631C79.8612 40.8758 80.2782 40.7067 80.5036 40.346C80.729 39.9854 80.6952 39.5233 80.4247 39.1964L78.1368 36.4013L80.0753 33.3356C80.3007 32.975 80.2782 32.5129 80.0077 32.186C79.7372 31.8592 79.3089 31.7465 78.9144 31.9043L75.6121 33.268L73.3692 30.4278C73.11 30.101 72.6705 29.977 72.276 30.1348C71.8928 30.2926 71.6448 30.687 71.6786 31.1153L71.9266 34.7558L68.6017 36.0744C68.5228 36.1082 68.4439 36.1533 68.3763 36.2097H58.0974C57.6804 36.2097 57.3423 36.5478 57.3423 36.9648V60.2501C57.3423 60.6671 57.6804 61.0053 58.0974 61.0053H75.7586C76.1869 60.994 76.5138 60.6559 76.5138 60.2389ZM72.569 36.5027C72.9635 36.3449 73.2115 35.9617 73.1889 35.5334L73.0311 33.2229L74.485 35.015C74.7555 35.3418 75.2064 35.4658 75.6008 35.308L77.7423 34.4402L76.4912 36.3787C76.2546 36.7394 76.2884 37.2015 76.5589 37.5284L78.0466 39.2979L75.815 38.7005C75.398 38.5878 74.9697 38.7569 74.7443 39.1288L73.5158 41.0899L73.3918 38.7794C73.3692 38.3511 73.0762 37.9905 72.6592 37.889L70.4163 37.3255L72.569 36.5027ZM58.4806 59.8669V38.4526H68.3989C68.5116 38.554 68.6581 38.6216 68.8046 38.6554L72.4112 39.5233L72.6141 43.1186C72.6366 44.0316 73.9779 44.3697 74.4512 43.5807L75.3867 42.1268V59.8669H58.4806Z" fill="#FB81BE"/>
<path d="M79.895 70.3825V64.0033C79.895 63.5863 79.5568 63.2482 79.1398 63.2482H63.744C63.327 63.2482 62.9889 63.5863 62.9889 64.0033V70.3825C62.9889 70.7996 63.327 71.1377 63.744 71.1377H79.1398C79.5568 71.1377 79.895 70.7996 79.895 70.3825ZM78.7679 68.8835H65.243V64.3752H78.7679V68.8835Z" fill="#45D3A1"/>
<path d="M69.4922 48.6977C69.7514 48.6864 69.9768 48.5624 70.1121 48.337C70.2473 48.1116 70.2586 47.8411 70.1459 47.6044L67.2493 41.7549C67.1253 41.4957 66.8549 41.3379 66.5731 41.3379C66.2913 41.3379 66.0208 41.4957 65.8968 41.7549L63.0003 47.6044C62.8876 47.8411 62.8988 48.1116 63.0341 48.337C63.1693 48.5511 63.406 48.6864 63.654 48.6977L61.9183 52.2479C61.8056 52.4846 61.8168 52.7551 61.9521 52.9805C62.0873 53.206 62.3353 53.3412 62.5945 53.1158H64.1161V56.5534C64.5331 56.9704 64.8712 57.3085 65.2882 57.6241H67.8579C68.275 57.3085 68.6131 56.9704 68.6356 56.5534V53.1158H70.5629C70.8221 53.3412 71.0701 53.206 71.2053 52.9805C71.3406 52.7551 71.3519 52.4846 71.2392 52.2479L69.4922 48.6977ZM66.5731 44.0767L68.2524 47.4804H64.8825L66.5731 44.0767ZM67.4973 55.3587H66.3702V53.1045H67.4973V55.3587ZM63.5751 51.9774L65.2319 48.5962H67.9143L69.5711 51.9774H63.5751Z" fill="#FB81BE"/>
</svg>
