<svg width="223" height="66" viewBox="0 0 223 66" fill="none" xmlns="http://www.w3.org/2000/svg">
<g clip-path="url(#clip0_106_233)">
<path d="M20.1091 0V5.8879H13.4987V28.373H20.1091V34.2609H0V28.373H6.61045V5.8879H0V0H20.1091Z" fill="#FB81BE"/>
<path d="M28.375 13.7866C28.375 12.6868 28.3527 11.5426 28.3194 10.3428C28.275 9.15406 28.2305 8.36531 28.1861 7.97648H34.4077C34.4521 8.32087 34.5188 9.03186 34.5855 10.0983C34.6632 11.1759 34.6966 12.0202 34.6966 12.6424H34.7965C35.7187 10.876 36.8741 9.5651 38.2629 8.69858C39.6516 7.84317 41.3292 7.40991 43.2846 7.40991C46.2621 7.40991 48.4507 8.32087 49.8284 10.1317C51.206 11.9425 51.8948 14.3976 51.8948 17.4749V34.2498H45.3844V19.2746C45.3844 17.2971 45.04 15.7641 44.3511 14.6754C43.6623 13.5867 42.4847 13.0423 40.8404 13.0423C39.7183 13.0423 38.7184 13.3311 37.8074 13.9199C36.9074 14.5087 36.2075 15.3197 35.6965 16.3751C35.1854 17.4304 34.9299 18.6414 34.9299 19.9967V34.2387H28.3861V13.7866H28.375Z" fill="#FB81BE"/>
<path d="M77.6033 29.3061C79.1921 29.6394 80.5031 30.3504 81.5141 31.4391C82.5362 32.5278 83.0473 34.1942 83.0473 36.4494C83.0473 39.1934 81.9363 41.2374 79.7143 42.5928C77.4923 43.9481 74.0037 44.6258 69.2597 44.6258C66.2489 44.6258 63.8381 44.4147 62.0271 43.9925C60.2162 43.5704 58.8941 42.8927 58.0386 41.9484C57.1943 41.0042 56.761 39.7488 56.761 38.1602C56.761 37.0382 57.0498 36.0383 57.6387 35.1496C58.2275 34.2608 59.083 33.3943 60.2384 32.5722C59.1385 31.7168 58.583 30.4726 58.583 28.8506C58.583 27.7619 58.8497 26.7843 59.3829 25.9178C59.9162 25.0513 60.6939 24.2181 61.716 23.4293C60.5051 22.685 59.5718 21.7074 58.9497 20.5076C58.3164 19.3078 58.0053 17.9414 58.0053 16.3972C58.0053 14.7086 58.383 13.1977 59.1496 11.8646C59.9162 10.5315 61.105 9.46502 62.7382 8.66515C64.3713 7.8764 66.4378 7.47647 68.9487 7.47647C71.604 7.47647 73.8259 7.95416 75.6147 8.90956C76.459 7.77642 77.3812 6.93211 78.3699 6.36554C79.3698 5.81008 80.5586 5.53235 81.9585 5.53235H82.0585L82.3029 10.9092H82.2029C80.7808 10.9092 79.5365 11.1092 78.481 11.498C79.4032 12.8867 79.8698 14.5308 79.8698 16.4083C79.8698 18.0636 79.4809 19.5522 78.7032 20.8742C77.9255 22.1962 76.7145 23.2405 75.0592 24.007C73.4038 24.7736 71.3262 25.1624 68.8153 25.1624C67.5932 25.1624 66.4489 25.0513 65.3601 24.818C65.0379 25.1402 64.7935 25.4401 64.638 25.7178C64.4824 25.9956 64.3936 26.3066 64.3936 26.6621C64.3936 27.1287 64.5713 27.4842 64.9268 27.7064C65.2824 27.9286 65.7934 28.0952 66.4489 28.1952C67.1044 28.2952 68.1265 28.3841 69.5264 28.4618L70.7152 28.5396C73.7149 28.7062 76.0146 28.9728 77.6033 29.3061ZM74.9703 39.2822C76.1479 38.8934 76.7368 38.2157 76.7368 37.2381C76.7368 36.5605 76.4923 36.0494 76.0146 35.7162C75.5258 35.3829 74.8258 35.1496 73.9037 35.0163C72.9816 34.8719 71.5262 34.7385 69.5264 34.5941L68.882 34.5497C67.7488 34.4719 66.8044 34.3942 66.0712 34.3164C65.3379 34.2497 64.638 34.1386 63.9714 34.0164C63.5381 34.5386 63.2159 35.0385 63.027 35.5384C62.827 36.0272 62.7382 36.5938 62.7382 37.2048C62.7382 37.9713 62.9826 38.5379 63.4603 38.9156C63.938 39.2933 64.6491 39.5488 65.6045 39.6822C66.5489 39.8155 67.8599 39.8821 69.5264 39.8821C71.9706 39.871 73.7926 39.671 74.9703 39.2822ZM65.4601 13.1311C64.6713 13.9198 64.2825 15.0085 64.2825 16.3861C64.2825 17.7525 64.6713 18.7968 65.4601 19.5411C66.2489 20.2854 67.3488 20.6631 68.7487 20.6631C71.9817 20.6631 73.5926 19.2412 73.5926 16.3861C73.5926 15.0085 73.2149 13.9198 72.4483 13.1311C71.6928 12.3423 70.5263 11.9424 68.9487 11.9424C67.4155 11.9313 66.2489 12.3312 65.4601 13.1311Z" fill="#FB81BE"/>
<path d="M92.3686 14.1532C92.3686 13.0312 92.3463 11.8425 92.313 10.5649C92.2575 9.28737 92.213 8.43196 92.1686 7.97648H98.3902C98.4346 8.29865 98.5013 9.00964 98.5679 10.0983C98.6457 11.1982 98.679 12.0091 98.679 12.5424H98.779C99.4567 11.3426 100.157 10.3872 100.857 9.66509C101.557 8.94299 102.445 8.38753 103.523 7.9987C104.601 7.60988 105.956 7.40991 107.611 7.40991C108.423 7.40991 109.211 7.45435 109.967 7.53211C110.733 7.60988 111.3 7.70986 111.689 7.82095L111.422 13.5311C109.8 13.3089 108.267 13.1867 106.8 13.1867C104.29 13.1867 102.334 13.8755 100.957 15.2641C99.579 16.6639 98.879 18.6525 98.879 21.252V34.2609H92.3686V14.1532Z" fill="#FB81BE"/>
<path d="M123.932 33.2056C122.032 32.1835 120.566 30.6504 119.544 28.6063C118.521 26.5622 118.01 24.0404 118.01 21.0409C118.01 18.0081 118.566 15.4752 119.666 13.4422C120.766 11.4092 122.243 9.89838 124.099 8.92077C125.954 7.94315 128.021 7.45435 130.309 7.45435C132.987 7.45435 135.187 8.03203 136.92 9.1985C138.653 10.3539 139.919 11.8869 140.708 13.8088C141.508 15.7196 141.897 17.8415 141.897 20.1522C141.897 21.0632 141.853 21.9408 141.753 22.8073H124.876C124.876 24.8847 125.376 26.5511 126.387 27.8287C127.387 29.1063 128.954 29.7395 131.054 29.7395C131.998 29.7395 132.842 29.6395 133.598 29.4284C134.353 29.2173 135.075 28.9174 135.775 28.5175C136.475 28.1175 137.342 27.551 138.375 26.8066L141.097 31.0837C139.575 32.2502 138.031 33.15 136.475 33.7944C134.92 34.4387 133.009 34.7498 130.743 34.7498C128.109 34.7386 125.832 34.2276 123.932 33.2056ZM135.542 18.2859C135.442 16.2306 134.953 14.7198 134.076 13.7533C133.187 12.7868 131.92 12.3091 130.276 12.3091C128.732 12.3091 127.487 12.7979 126.532 13.7755C125.576 14.7531 125.054 16.264 124.954 18.2859H135.542Z" fill="#FB81BE"/>
<path d="M154.029 33.8277C152.252 33.2167 150.585 32.2502 149.03 30.9282L152.018 26.4289C153.44 27.5621 154.785 28.4175 156.04 28.9841C157.295 29.5506 158.651 29.8395 160.095 29.8395C161.551 29.8395 162.695 29.6395 163.528 29.2396C164.35 28.8396 164.772 28.1398 164.772 27.1399C164.772 26.44 164.561 25.8846 164.139 25.4624C163.717 25.0403 163.184 24.7181 162.528 24.4737C161.873 24.2404 160.94 23.9627 159.717 23.6627L158.451 23.3517C156.696 22.9184 155.24 22.4185 154.062 21.8741C152.885 21.3187 151.918 20.5188 151.163 19.4857C150.407 18.4414 150.029 17.0638 150.029 15.3641C150.029 13.7311 150.418 12.3202 151.207 11.1426C151.985 9.96503 153.151 9.06518 154.673 8.43196C156.196 7.79873 158.04 7.48767 160.195 7.48767C162.217 7.48767 164.084 7.79873 165.783 8.43196C167.483 9.06518 168.917 9.99836 170.083 11.2315L166.75 15.1753C165.895 14.331 164.917 13.6644 163.806 13.1756C162.706 12.6868 161.506 12.4313 160.228 12.4313C157.44 12.4313 156.051 13.2423 156.051 14.8642C156.051 15.4752 156.229 15.9751 156.596 16.3306C156.962 16.6972 157.429 16.9861 158.018 17.1971C158.606 17.4082 159.44 17.6415 160.551 17.897L161.773 18.1859C163.684 18.6747 165.261 19.1968 166.517 19.7523C167.761 20.3077 168.794 21.152 169.616 22.263C170.439 23.3739 170.839 24.8403 170.839 26.6733C170.839 28.3397 170.416 29.7839 169.561 31.0059C168.717 32.2168 167.483 33.15 165.861 33.8055C164.25 34.4498 162.328 34.7831 160.084 34.7831C157.829 34.7386 155.807 34.4387 154.029 33.8277Z" fill="#FB81BE"/>
<path d="M181.826 33.8055C180.515 33.1833 179.515 32.2724 178.804 31.0948C178.093 29.9172 177.738 28.4952 177.738 26.84C177.738 23.9405 178.749 21.8186 180.782 20.4966C182.815 19.1746 185.482 18.4747 188.77 18.4303L194.892 18.3303V17.0638C194.892 15.4308 194.458 14.2643 193.581 13.5755C192.703 12.8868 191.481 12.5424 189.903 12.5424C188.659 12.5424 187.415 12.809 186.181 13.3311C184.948 13.8533 183.648 14.6865 182.293 15.8196L179.104 11.687C182.382 8.86522 186.093 7.45435 190.27 7.45435C192.603 7.45435 194.603 7.82095 196.269 8.53194C197.936 9.25404 199.213 10.3205 200.102 11.7203C200.98 13.1201 201.424 14.8198 201.424 16.8083V26.7289C201.424 29.5284 201.491 32.0391 201.624 34.2387H195.403C195.303 32.9945 195.258 31.7614 195.258 30.5393H195.092C193.225 33.3278 190.325 34.7164 186.393 34.7164C184.648 34.7386 183.126 34.4276 181.826 33.8055ZM191.792 28.9507C192.77 28.3953 193.536 27.6732 194.081 26.7733C194.625 25.8735 194.892 24.9292 194.892 23.9405V22.5074L190.759 22.6074C189.414 22.6407 188.303 22.7407 187.448 22.9184C186.581 23.0962 185.893 23.4517 185.348 23.9849C184.804 24.5181 184.537 25.318 184.537 26.3623C184.537 27.451 184.893 28.2842 185.593 28.8841C186.304 29.4729 187.237 29.7728 188.426 29.7728C189.692 29.7839 190.814 29.5062 191.792 28.9507Z" fill="#FB81BE"/>
<path d="M59.4718 64.6669C58.8275 64.067 58.5053 63.1894 58.5053 62.034V55.2907H55.4389V52.8133H58.5719L58.7719 50.0693L61.6383 49.8805V52.8022H65.6601V55.2796H61.6383V61.2675C61.6383 61.8674 61.7605 62.3117 62.0049 62.6006C62.2493 62.8783 62.6382 63.0227 63.1604 63.0227C63.5825 63.0227 64.0269 62.9783 64.5047 62.8783C64.9824 62.7894 65.4268 62.645 65.8268 62.4673L66.0601 64.9224C65.349 65.1446 64.7158 65.3112 64.1491 65.4112C63.5936 65.5112 62.927 65.5667 62.1605 65.5667C61.0161 65.5778 60.1162 65.2779 59.4718 64.6669Z" fill="#FB81BE"/>
<path d="M70.3374 64.3225C69.6708 63.4449 69.3375 62.2784 69.3375 60.8009V52.8134H72.4705V59.9233C72.4705 60.9009 72.6372 61.6452 72.9594 62.1673C73.2927 62.6895 73.8482 62.945 74.637 62.945C75.1592 62.945 75.6369 62.8006 76.0702 62.5228C76.4924 62.2451 76.8257 61.8452 77.0701 61.3341C77.3145 60.8231 77.4367 60.2454 77.4367 59.59V52.8245H80.5808V62.5895C80.5808 63.1227 80.592 63.6782 80.6142 64.2337C80.6364 64.8002 80.6586 65.1779 80.6808 65.3668H77.6811C77.6589 65.2002 77.6256 64.8558 77.5923 64.3447C77.5589 63.8337 77.5367 63.4227 77.5367 63.1338H77.4812C76.6479 64.8113 75.3036 65.6445 73.4593 65.6445C72.0484 65.6334 71.004 65.2002 70.3374 64.3225Z" fill="#FB81BE"/>
<path d="M95.5905 64.7113C94.0684 63.8559 92.9352 62.6561 92.1686 61.1341C91.402 59.6122 91.0243 57.8236 91.0243 55.8017C91.0243 53.5798 91.4465 51.6913 92.2908 50.136C93.1352 48.5807 94.324 47.392 95.8683 46.5921C97.4014 45.7923 99.2013 45.3923 101.257 45.3923C103.112 45.3923 104.678 45.7478 105.978 46.4477C107.278 47.1476 108.356 48.1474 109.234 49.4472L105.778 51.8579C105.178 51.0469 104.534 50.4248 103.845 49.9916C103.156 49.5583 102.301 49.3361 101.257 49.3361C99.6123 49.3361 98.368 49.8805 97.5125 50.9581C96.6571 52.0357 96.2238 53.5798 96.2238 55.5795C96.2238 57.6236 96.6682 59.2122 97.5459 60.3232C98.4236 61.4452 99.679 62.0006 101.29 62.0006C102.345 62.0006 103.268 61.7785 104.056 61.3341C104.845 60.8897 105.678 60.2454 106.567 59.4122L109.511 62.3561C108.534 63.4671 107.345 64.3558 105.945 65.0113C104.545 65.6667 102.945 65.9889 101.157 65.9889C98.9568 66 97.1015 65.5667 95.5905 64.7113Z" fill="#FB81BE"/>
<path d="M117.133 64.6446C115.655 63.7448 114.533 62.5117 113.766 60.9564C113 59.39 112.622 57.6236 112.622 55.6573C112.622 53.7465 113 52.0134 113.744 50.4581C114.489 48.9029 115.611 47.6697 117.099 46.7588C118.588 45.8478 120.399 45.3923 122.543 45.3923C124.799 45.3923 126.665 45.8367 128.132 46.7477C129.609 47.6475 130.687 48.8695 131.376 50.4137C132.065 51.9579 132.409 53.7132 132.409 55.6684C132.409 57.6236 132.031 59.39 131.276 60.9453C130.52 62.5117 129.398 63.7448 127.898 64.6446C126.399 65.5556 124.576 66 122.432 66C120.377 66 118.61 65.5445 117.133 64.6446ZM125.965 60.412C126.787 59.3233 127.21 57.7347 127.21 55.6573C127.21 53.6132 126.821 52.0468 126.032 50.9692C125.243 49.8805 124.11 49.3472 122.632 49.3472C121.088 49.3472 119.899 49.9027 119.055 51.0025C118.21 52.1023 117.799 53.6576 117.799 55.6684C117.799 57.0237 117.988 58.1902 118.377 59.1456C118.766 60.101 119.299 60.8231 119.999 61.323C120.688 61.8229 121.488 62.0673 122.399 62.0673C123.943 62.0451 125.132 61.5007 125.965 60.412Z" fill="#FB81BE"/>
<path d="M139.397 50.4359C139.397 49.5916 139.386 48.6918 139.353 47.7253C139.319 46.7588 139.286 46.1144 139.253 45.7701H143.952C143.986 46.0145 144.03 46.5477 144.086 47.3809C144.141 48.203 144.175 48.8251 144.175 49.225H144.252C144.763 48.3141 145.286 47.592 145.819 47.0476C146.352 46.5033 147.019 46.0811 147.83 45.7923C148.641 45.5034 149.663 45.3479 150.918 45.3479C151.529 45.3479 152.118 45.3812 152.696 45.4368C153.274 45.5034 153.707 45.5701 153.996 45.659L153.796 49.9805C152.574 49.8138 151.407 49.7249 150.307 49.7249C148.407 49.7249 146.941 50.2471 145.885 51.2913C144.841 52.3356 144.319 53.8465 144.319 55.8017V65.6334H139.397V50.4359Z" fill="#FB81BE"/>
<path d="M162.051 50.4359C162.051 49.5916 162.039 48.6918 162.006 47.7253C161.973 46.7588 161.939 46.1144 161.906 45.7701H166.606C166.639 46.0145 166.683 46.5477 166.739 47.3809C166.794 48.203 166.828 48.8251 166.828 49.225H166.906C167.417 48.3141 167.939 47.592 168.472 47.0476C169.005 46.5033 169.672 46.0811 170.483 45.7923C171.294 45.5034 172.316 45.3479 173.572 45.3479C174.183 45.3479 174.771 45.3812 175.349 45.4368C175.927 45.5034 176.36 45.5701 176.649 45.659L176.449 49.9805C175.227 49.8138 174.06 49.7249 172.961 49.7249C171.061 49.7249 169.594 50.2471 168.539 51.2913C167.494 52.3356 166.972 53.8465 166.972 55.8017V65.6334H162.051V50.4359Z" fill="#FB81BE"/>
<path d="M185.904 64.8335C184.471 64.067 183.36 62.9005 182.593 61.3563C181.826 59.8121 181.438 57.9125 181.438 55.6462C181.438 53.3577 181.849 51.4469 182.682 49.9027C183.515 48.3696 184.637 47.2254 186.037 46.481C187.437 45.7367 189.003 45.3701 190.725 45.3701C192.747 45.3701 194.414 45.8034 195.725 46.681C197.036 47.5586 197.991 48.714 198.591 50.1582C199.191 51.6024 199.491 53.2021 199.491 54.9574C199.491 55.6462 199.458 56.3127 199.38 56.9571H186.637C186.637 58.5235 187.015 59.7899 187.781 60.7453C188.548 61.7007 189.714 62.1895 191.303 62.1895C192.014 62.1895 192.659 62.1117 193.225 61.9562C193.792 61.8007 194.347 61.5674 194.869 61.2674C195.392 60.9675 196.047 60.5342 196.836 59.9677L198.891 63.2004C197.736 64.0781 196.58 64.7669 195.403 65.2445C194.225 65.7334 192.781 65.9667 191.07 65.9667C189.059 66 187.337 65.6112 185.904 64.8335ZM194.67 53.5576C194.592 52.0023 194.225 50.8581 193.559 50.136C192.892 49.4028 191.936 49.0473 190.681 49.0473C189.514 49.0473 188.57 49.4139 187.859 50.1582C187.137 50.9025 186.737 52.0357 186.659 53.5687H194.67V53.5576Z" fill="#FB81BE"/>
<path d="M207.735 64.6446C206.257 63.7448 205.135 62.5117 204.369 60.9564C203.602 59.39 203.224 57.6236 203.224 55.6573C203.224 53.7465 203.602 52.0134 204.346 50.4581C205.091 48.9029 206.213 47.6697 207.702 46.7588C209.19 45.8478 211.001 45.3923 213.145 45.3923C215.401 45.3923 217.267 45.8367 218.734 46.7477C220.211 47.6475 221.289 48.8695 221.978 50.4137C222.667 51.9579 223.011 53.7132 223.011 55.6684C223.011 57.6236 222.633 59.39 221.878 60.9453C221.122 62.5117 220 63.7448 218.5 64.6446C217.001 65.5556 215.179 66 213.034 66C210.979 66 209.212 65.5445 207.735 64.6446ZM216.556 60.412C217.378 59.3233 217.801 57.7347 217.801 55.6573C217.801 53.6132 217.412 52.0468 216.623 50.9692C215.834 49.8805 214.701 49.3472 213.223 49.3472C211.679 49.3472 210.49 49.9027 209.646 51.0025C208.813 52.1023 208.39 53.6576 208.39 55.6684C208.39 57.0237 208.579 58.1902 208.968 59.1456C209.357 60.101 209.89 60.8231 210.59 61.323C211.279 61.8229 212.079 62.0673 212.99 62.0673C214.545 62.0451 215.734 61.5007 216.556 60.412Z" fill="#FB81BE"/>
</g>
<defs>
<clipPath id="clip0_106_233">
<rect width="223" height="66" fill="white"/>
</clipPath>
</defs>
</svg>
